<?xml version="1.0" encoding="UTF-8"?><svg id="Layer_1" xmlns="http://www.w3.org/2000/svg" xmlns:xlink="http://www.w3.org/1999/xlink" viewBox="0 0 1300 900"><defs><style>.cls-1{fill:#02213f;}.cls-2{fill:url(#linear-gradient-2);}.cls-3{fill:url(#linear-gradient-17);}.cls-4{fill:url(#linear-gradient-15);}.cls-5{fill:url(#linear-gradient-18);}.cls-6{fill:url(#linear-gradient-28);}.cls-7{fill:url(#linear-gradient-14);}.cls-8{fill:url(#linear-gradient-20);}.cls-9{fill:url(#linear-gradient-6);}.cls-10{clip-path:url(#clippath-2);}.cls-11{clip-path:url(#clippath-6);}.cls-12{fill:url(#linear-gradient-11);}.cls-13{clip-path:url(#clippath-7);}.cls-14{clip-path:url(#clippath-1);}.cls-15{clip-path:url(#clippath-4);}.cls-16{fill:url(#linear-gradient-10);}.cls-17{fill:url(#linear-gradient-16);}.cls-18{fill:url(#linear-gradient-21);}.cls-19{fill:url(#linear-gradient-25);}.cls-20{fill:url(#linear-gradient-5);}.cls-21{clip-path:url(#clippath);}.cls-22{clip-path:url(#clippath-3);}.cls-23{fill:url(#linear-gradient-7);}.cls-24{clip-path:url(#clippath-8);}.cls-25{fill:url(#linear-gradient-24);}.cls-26{fill:url(#linear-gradient-9);}.cls-27{fill:url(#linear-gradient-22);}.cls-28{fill:url(#linear-gradient-3);}.cls-29{clip-path:url(#clippath-5);}.cls-30{fill:url(#linear-gradient);}.cls-31{fill:url(#linear-gradient-27);}.cls-32{fill:url(#linear-gradient-23);}.cls-33{fill:url(#linear-gradient-19);}.cls-34{fill:url(#linear-gradient-4);}.cls-35{fill:url(#linear-gradient-8);}.cls-36{fill:url(#linear-gradient-12);}.cls-37{fill:url(#linear-gradient-13);}.cls-38{fill:url(#linear-gradient-26);}</style><linearGradient id="linear-gradient" x1="342.97" y1="425.76" x2="465.77" y2="425.76" gradientUnits="userSpaceOnUse"><stop offset="0" stop-color="#ff8f15"/><stop offset="1" stop-color="#ff5315"/></linearGradient><linearGradient id="linear-gradient-2" x1="732.01" y1="516.47" x2="973.91" y2="516.47" xlink:href="#linear-gradient"/><linearGradient id="linear-gradient-3" x1="732.01" y1="516.47" x2="973.91" y2="516.47" xlink:href="#linear-gradient"/><clipPath id="clippath"><path class="cls-28" d="M738.72,508.1c0,13.62,19.63,7.82,19.63,16.76,0,3.14-2.39,5.42-6.65,5.42s-6.33-2.45-6.6-5.48h-6.49c0,6.54,5.69,10.58,13.08,10.58,8.24,0,12.77-5.32,12.77-10.85,0-13.51-19.57-8.3-19.57-16.65,0-3.56,2.71-5.27,6.22-5.16,3.83,.11,6.01,2.39,6.22,4.89h6.7c-.53-6.33-5.53-10.05-12.61-10.05-7.55,0-12.71,4.04-12.71,10.53"/></clipPath><linearGradient id="linear-gradient-4" x1="550.7" y1="6221.1" x2="551.7" y2="6221.1" gradientTransform="translate(-132484.77 1505431.11) scale(241.9 -241.9)" xlink:href="#linear-gradient"/><linearGradient id="linear-gradient-5" x1="732.01" y1="520.36" x2="973.91" y2="520.36" xlink:href="#linear-gradient"/><linearGradient id="linear-gradient-6" x1="732.01" y1="520.36" x2="973.91" y2="520.36" xlink:href="#linear-gradient"/><clipPath id="clippath-1"><path class="cls-9" d="M773.19,520.33c0-6.65,4.1-9.84,8.67-9.84s8.83,3.19,8.83,9.84-4.47,9.89-8.99,9.89-8.51-3.24-8.51-9.89m-6.17,0c0,9.2,6.33,15.16,14.68,15.16s15.21-5.96,15.21-15.16-6.6-15.11-14.95-15.11-14.95,5.9-14.95,15.11"/></clipPath><linearGradient id="linear-gradient-7" x1="550.7" y1="6221.1" x2="551.7" y2="6221.1" gradientTransform="translate(-132484.77 1505434.99) scale(241.9 -241.9)" xlink:href="#linear-gradient"/><linearGradient id="linear-gradient-8" x1="732" y1="515.33" x2="973.91" y2="515.33" xlink:href="#linear-gradient"/><linearGradient id="linear-gradient-9" x1="732" y1="515.33" x2="973.91" y2="515.33" xlink:href="#linear-gradient"/><clipPath id="clippath-2"><rect class="cls-26" x="800.26" y="495.65" width="6.06" height="39.36"/></clipPath><linearGradient id="linear-gradient-10" x1="550.7" y1="6221.1" x2="551.7" y2="6221.1" gradientTransform="translate(-132484.77 1505429.96) scale(241.9 -241.9)" xlink:href="#linear-gradient"/><linearGradient id="linear-gradient-11" x1="732.01" y1="520.57" x2="973.91" y2="520.57" xlink:href="#linear-gradient"/><linearGradient id="linear-gradient-12" x1="732.01" y1="520.57" x2="973.91" y2="520.57" xlink:href="#linear-gradient"/><clipPath id="clippath-3"><path class="cls-36" d="M832.13,505.7v16.33c0,5.37-2.93,8.14-7.39,8.14s-7.34-2.77-7.34-8.14v-16.33h-6.01v17.23c0,8.19,5.21,12.5,12.08,12.5,3.46,0,6.75-1.43,8.67-3.94v3.51h6.06v-29.31h-6.06Z"/></clipPath><linearGradient id="linear-gradient-13" x1="550.7" y1="6221.1" x2="551.7" y2="6221.1" gradientTransform="translate(-132484.77 1505435.2) scale(241.9 -241.9)" xlink:href="#linear-gradient"/><linearGradient id="linear-gradient-14" x1="732.01" y1="516.71" x2="973.91" y2="516.71" xlink:href="#linear-gradient"/><linearGradient id="linear-gradient-15" x1="732.01" y1="516.71" x2="973.91" y2="516.71" xlink:href="#linear-gradient"/><clipPath id="clippath-4"><path class="cls-4" d="M844.47,498.42v7.29h-3.46v4.95h3.46v16.22c0,5.96,3.24,8.14,8.46,8.14h4.79v-5.05h-3.72c-2.55,0-3.4-.9-3.4-3.08v-16.22h7.13v-4.95h-7.13v-7.29h-6.12Z"/></clipPath><linearGradient id="linear-gradient-16" x1="550.7" y1="6221.1" x2="551.7" y2="6221.1" gradientTransform="translate(-132484.77 1505431.35) scale(241.9 -241.9)" xlink:href="#linear-gradient"/><linearGradient id="linear-gradient-17" x1="732.01" y1="514.53" x2="973.91" y2="514.53" xlink:href="#linear-gradient"/><linearGradient id="linear-gradient-18" x1="732.01" y1="514.53" x2="973.91" y2="514.53" xlink:href="#linear-gradient"/><clipPath id="clippath-5"><path class="cls-5" d="M860.64,535.01h6.06v-29.31h-6.06v29.31Zm-.8-37.07c0,2.18,1.7,3.88,3.88,3.88s3.83-1.7,3.83-3.88-1.7-3.88-3.83-3.88-3.88,1.7-3.88,3.88"/></clipPath><linearGradient id="linear-gradient-19" x1="550.7" y1="6221.1" x2="551.7" y2="6221.1" gradientTransform="translate(-132484.77 1505429.17) scale(241.9 -241.9)" xlink:href="#linear-gradient"/><linearGradient id="linear-gradient-20" x1="732" y1="520.36" x2="973.91" y2="520.36" xlink:href="#linear-gradient"/><linearGradient id="linear-gradient-21" x1="732" y1="520.36" x2="973.91" y2="520.36" xlink:href="#linear-gradient"/><clipPath id="clippath-6"><path class="cls-18" d="M876.23,520.33c0-6.65,4.09-9.84,8.67-9.84s8.83,3.19,8.83,9.84-4.47,9.89-8.99,9.89-8.51-3.24-8.51-9.89m-6.17,0c0,9.2,6.33,15.16,14.68,15.16s15.21-5.96,15.21-15.16-6.6-15.11-14.95-15.11-14.95,5.9-14.95,15.11"/></clipPath><linearGradient id="linear-gradient-22" x1="550.7" y1="6221.1" x2="551.7" y2="6221.1" gradientTransform="translate(-132484.77 1505434.99) scale(241.9 -241.9)" xlink:href="#linear-gradient"/><linearGradient id="linear-gradient-23" x1="732" y1="520.12" x2="973.91" y2="520.12" xlink:href="#linear-gradient"/><linearGradient id="linear-gradient-24" x1="732" y1="520.12" x2="973.91" y2="520.12" xlink:href="#linear-gradient"/><clipPath id="clippath-7"><path class="cls-25" d="M909.37,509.05v-3.35h-6.06v29.31h6.06v-16.38c0-5.37,2.92-8.14,7.39-8.14s7.34,2.77,7.34,8.14v16.38h6.01v-17.29c0-8.19-5.16-12.5-12.02-12.5-3.51,0-6.76,1.44-8.72,3.83"/></clipPath><linearGradient id="linear-gradient-25" x1="550.7" y1="6221.1" x2="551.7" y2="6221.1" gradientTransform="translate(-132484.77 1505434.75) scale(241.9 -241.9)" xlink:href="#linear-gradient"/><linearGradient id="linear-gradient-26" x1="732.01" y1="520.36" x2="973.91" y2="520.36" xlink:href="#linear-gradient"/><linearGradient id="linear-gradient-27" x1="732.01" y1="520.36" x2="973.91" y2="520.36" xlink:href="#linear-gradient"/><clipPath id="clippath-8"><path class="cls-31" d="M934.05,513.68c0,10.75,17.02,7.45,17.02,13.19,0,2.02-1.86,3.51-5.37,3.51s-5.64-1.97-5.85-4.36h-6.28c.27,5.32,5.21,9.47,12.23,9.47s11.22-3.72,11.22-8.67c-.32-10.58-16.86-7.29-16.86-13.19,0-1.97,1.7-3.3,4.95-3.3s5.27,1.76,5.48,4.31h6.06c-.32-5.85-4.68-9.42-11.33-9.42s-11.28,3.78-11.28,8.46"/></clipPath><linearGradient id="linear-gradient-28" x1="550.7" y1="6221.1" x2="551.7" y2="6221.1" gradientTransform="translate(-132484.77 1505434.99) scale(241.9 -241.9)" xlink:href="#linear-gradient"/></defs><g><path class="cls-1" d="M535.35,481.44c-30.34,0-55.13-22.79-55.13-55.13s24.79-54.97,55.13-54.97,54.97,22.79,54.97,54.97-24.49,55.13-54.97,55.13m0-19.25c19.4,0,32.8-14.01,32.8-35.88s-13.4-35.57-32.8-35.57-32.96,13.71-32.96,35.57,13.4,35.88,32.96,35.88"/><path class="cls-1" d="M648.52,393.67c21.87,0,38.96,17.09,38.96,43.73s-17.09,44.35-38.96,44.35c-13.4,0-22.94-6.62-28.18-13.55v41.62l-21.56,11.2v-125.96h21.56v12.32c5.08-7.24,14.94-13.7,28.18-13.7m-5.7,18.94c-11.55,0-22.48,8.93-22.48,25.1s10.93,25.1,22.48,25.1,22.64-9.24,22.64-25.41-10.93-24.79-22.64-24.79"/><path class="cls-1" d="M739.82,412.76v-17.71h-19.1v-29.5l-21.71,8.4v21.1h-10.16v17.71h23.73l-13.57,5.71v35.4c0,19.56,10.93,26.49,27.26,26.49h13.55v-18.17h-10.01c-6.78,0-9.09-2.46-9.09-8.16v-41.27h19.1Z"/><rect class="cls-1" x="749.21" y="372.88" width="21.56" height="107.49"/><path class="cls-1" d="M841.41,433.24c0-13.7-7.55-21.1-18.94-21.1s-19.25,7.39-19.25,21.1v47.12h-21.56v-85.31h21.56v10.63c5.54-7.24,14.78-11.86,25.72-11.86,19.86,0,34.03,12.94,34.03,36.5v50.05h-21.56v-47.12Z"/><path class="cls-1" d="M934.24,433.24c0-13.7-7.55-21.1-18.94-21.1s-19.25,7.39-19.25,21.1v47.12h-21.56v-85.31h21.56v10.63c5.54-7.24,14.78-11.86,25.72-11.86,19.86,0,34.03,12.94,34.03,36.5v50.05h-21.56v-47.12Z"/></g><path class="cls-30" d="M364.2,425.93c0-16.05,9.45-29.93,23.09-36.36v14.67c-6.42,5.06-10.54,12.9-10.54,21.68s3.89,16.17,9.98,21.24v14.86c-13.32-6.55-22.53-20.26-22.53-36.1m-21.22,0c0,31.8,24.16,57.95,55.12,61.08v-100.76c2.05-.33,4.13-.5,6.27-.5,22.16,0,40.18,18.01,40.18,40.17,0,15.83-9.19,29.55-22.53,36.08v-14.82c6.11-5.09,10-12.73,10-21.26,0-13.08-9.13-24.07-21.37-26.93v88.01c30.97-3.14,55.12-29.29,55.12-61.08,0-33.92-27.48-61.42-61.4-61.42s-61.4,27.5-61.4,61.42"/><g><g><path class="cls-2" d="M738.72,508.1c0,13.62,19.63,7.82,19.63,16.76,0,3.14-2.39,5.42-6.65,5.42s-6.33-2.45-6.6-5.48h-6.49c0,6.54,5.69,10.58,13.08,10.58,8.24,0,12.77-5.32,12.77-10.85,0-13.51-19.57-8.3-19.57-16.65,0-3.56,2.71-5.27,6.22-5.16,3.83,.11,6.01,2.39,6.22,4.89h6.7c-.53-6.33-5.53-10.05-12.61-10.05-7.55,0-12.71,4.04-12.71,10.53"/><g class="cls-21"><rect class="cls-34" x="738.61" y="497.57" width="25.85" height="37.82"/></g></g><g><path class="cls-20" d="M773.19,520.33c0-6.65,4.1-9.84,8.67-9.84s8.83,3.19,8.83,9.84-4.47,9.89-8.99,9.89-8.51-3.24-8.51-9.89m-6.17,0c0,9.2,6.33,15.16,14.68,15.16s15.21-5.96,15.21-15.16-6.6-15.11-14.95-15.11-14.95,5.9-14.95,15.11"/><g class="cls-14"><rect class="cls-23" x="767.02" y="505.22" width="29.89" height="30.26"/></g></g><g><rect class="cls-35" x="800.26" y="495.65" width="6.06" height="39.36"/><g class="cls-10"><rect class="cls-16" x="800.26" y="495.65" width="6.06" height="39.36"/></g></g><g><path class="cls-12" d="M832.13,505.7v16.33c0,5.37-2.93,8.14-7.39,8.14s-7.34-2.77-7.34-8.14v-16.33h-6.01v17.23c0,8.19,5.21,12.5,12.08,12.5,3.46,0,6.75-1.43,8.67-3.94v3.51h6.06v-29.31h-6.06Z"/><g class="cls-22"><rect class="cls-37" x="811.38" y="505.7" width="26.81" height="29.73"/></g></g><g><path class="cls-7" d="M844.47,498.42v7.29h-3.46v4.95h3.46v16.22c0,5.96,3.24,8.14,8.46,8.14h4.79v-5.05h-3.72c-2.55,0-3.4-.9-3.4-3.08v-16.22h7.13v-4.95h-7.13v-7.29h-6.12Z"/><g class="cls-15"><rect class="cls-17" x="841.01" y="498.42" width="16.7" height="36.6"/></g></g><g><path class="cls-3" d="M860.64,535.01h6.06v-29.31h-6.06v29.31Zm-.8-37.07c0,2.18,1.7,3.88,3.88,3.88s3.83-1.7,3.83-3.88-1.7-3.88-3.83-3.88-3.88,1.7-3.88,3.88"/><g class="cls-29"><rect class="cls-33" x="859.84" y="494.05" width="7.71" height="40.96"/></g></g><g><path class="cls-8" d="M876.23,520.33c0-6.65,4.09-9.84,8.67-9.84s8.83,3.19,8.83,9.84-4.47,9.89-8.99,9.89-8.51-3.24-8.51-9.89m-6.17,0c0,9.2,6.33,15.16,14.68,15.16s15.21-5.96,15.21-15.16-6.6-15.11-14.95-15.11-14.95,5.9-14.95,15.11"/><g class="cls-11"><rect class="cls-27" x="870.06" y="505.22" width="29.89" height="30.26"/></g></g><g><path class="cls-32" d="M909.37,509.05v-3.35h-6.06v29.31h6.06v-16.38c0-5.37,2.92-8.14,7.39-8.14s7.34,2.77,7.34,8.14v16.38h6.01v-17.29c0-8.19-5.16-12.5-12.02-12.5-3.51,0-6.76,1.44-8.72,3.83"/><g class="cls-13"><rect class="cls-19" x="903.3" y="505.22" width="26.81" height="29.79"/></g></g><g><path class="cls-38" d="M934.05,513.68c0,10.75,17.02,7.45,17.02,13.19,0,2.02-1.86,3.51-5.37,3.51s-5.64-1.97-5.85-4.36h-6.28c.27,5.32,5.21,9.47,12.23,9.47s11.22-3.72,11.22-8.67c-.32-10.58-16.86-7.29-16.86-13.19,0-1.97,1.7-3.3,4.95-3.3s5.27,1.76,5.48,4.31h6.06c-.32-5.85-4.68-9.42-11.33-9.42s-11.28,3.78-11.28,8.46"/><g class="cls-24"><rect class="cls-6" x="933.57" y="505.22" width="23.46" height="30.26"/></g></g></g></svg>